<?xml version="1.0" encoding="UTF-8"?>
<svg width="1022px" height="1558px" viewBox="0 0 1022 1558" version="1.1" xmlns="http://www.w3.org/2000/svg" xmlns:xlink="http://www.w3.org/1999/xlink">
    <!-- Generator: Sketch 48.2 (47327) - http://www.bohemiancoding.com/sketch -->
    <title>Background</title>
    <desc>Created with Sketch.</desc>
    <defs>
        <linearGradient x1="30.4362644%" y1="100%" x2="55.8055455%" y2="44.2413451%" id="linearGradient-1">
            <stop stop-color="#000C34" offset="0%"></stop>
            <stop stop-color="#097485" offset="100%"></stop>
        </linearGradient>
        <path d="M701.404705,564.237191 L702.51033,565.342816 C654.01304,551.339414 603.346218,579.302235 589.342816,627.799524 C584.559669,644.364759 584.559669,661.945095 589.342816,678.51033 L588.237191,677.404705 C607.567874,768.669474 581.792106,867.577251 510.909886,938.459471 C399.522514,1049.84684 218.927901,1049.84684 107.540529,938.459471 C-3.84684302,827.072099 -3.84684302,646.477486 107.540529,535.090114 C180.858385,461.772258 284.160902,436.713984 377.974825,459.915292 C423.646975,467.870368 468.862634,440.163115 481.777654,394.577414 C485.538907,381.301452 486.243143,367.388457 483.890364,353.873945 C460.731951,260.086862 485.798534,156.83211 559.090114,83.5405291 C670.477486,-27.846843 851.072099,-27.846843 962.459471,83.5405291 C1073.84684,194.927901 1073.84684,375.522514 962.459471,486.909886 C891.577251,557.792106 792.669474,583.567874 701.404703,564.237191 Z" id="path-2"></path>
        <path d="M780.920909,1591.22504 L781.78745,1592.09158 C743.777344,1581.11631 704.06685,1603.03238 693.091581,1641.04248 C689.342755,1654.02561 689.342755,1667.80433 693.091581,1680.78745 L692.225039,1679.92091 C707.375604,1751.45034 687.173656,1828.97004 631.619196,1884.5245 C544.318526,1971.82517 402.776173,1971.82517 315.475503,1884.5245 C228.174832,1797.22383 228.174832,1655.68147 315.475503,1568.3808 C372.938911,1510.9174 453.903016,1491.27779 527.430366,1509.46199 C563.22625,1515.69683 598.664354,1493.98107 608.786596,1458.25294 C611.734505,1447.84781 612.286456,1436.9434 610.442448,1426.3513 C592.291872,1352.84499 611.93799,1271.91832 669.380804,1214.4755 C756.681474,1127.17483 898.223827,1127.17483 985.524497,1214.4755 C1072.82517,1301.77617 1072.82517,1443.31853 985.524497,1530.6192 C929.970037,1586.17366 852.450343,1606.3756 780.920909,1591.22504 Z" id="path-3"></path>
    </defs>
    <g id="Desktop-Copy-3" stroke="none" stroke-width="1" fill="none" fill-rule="evenodd" transform="translate(-931.000000, 0.000000)">
        <g id="Group-3" transform="translate(931.000000, -418.000000)">
            <g id="Combined-Shape">
                <use fill="url(#linearGradient-1)" xlink:href="#path-2"></use>
                <use fill="#000C34" xlink:href="#path-2"></use>
            </g>
            <g id="Combined-Shape-Copy" transform="translate(650.500000, 1549.500000) rotate(-81.000000) translate(-650.500000, -1549.500000) ">
                <use fill="#EDEAEA" xlink:href="#path-3"></use>
                <use fill="#EBEFF0" xlink:href="#path-3"></use>
            </g>
        </g>
    </g>
</svg>