<svg xmlns="http://www.w3.org/2000/svg" width="120" height="41" viewBox="0 0 120 41">
  <g fill="none" fill-rule="evenodd" transform="translate(1 1)">
    <g transform="translate(20.753)">
      <rect width="7.011" height="30.945" fill="#00CFFF" rx="3.506"/>
      <path fill="#000C34" d="M0,19.6923077 L7.01129124,19.6923077 L7.01129124,27.4394093 C7.01129124,29.3755239 5.44176023,30.9450549 3.50564562,30.9450549 L3.50564562,30.9450549 C1.56953101,30.9450549 1.12528408e-15,29.3755239 8.8817842e-16,27.4394093 L0,19.6923077 Z"/>
    </g>
    <g transform="translate(0 8.44)">
      <rect width="7.011" height="30.945" fill="#00CFFF" rx="3.506"/>
      <path fill="#000C34" d="M0,11.2527473 L7.01129124,11.2527473 L7.01129124,27.4394093 C7.01129124,29.3755239 5.44176023,30.9450549 3.50564562,30.9450549 L3.50564562,30.9450549 C1.56953101,30.9450549 -3.90155129e-15,29.3755239 -8.43769499e-15,27.4394093 L0,11.2527473 Z"/>
    </g>
    <g transform="translate(10.377 4.22)">
      <rect width="7.011" height="30.945" fill="#00CFFF" rx="3.506"/>
      <path fill="#000C34" d="M0,15.4725275 L7.01129124,15.4725275 L7.01129124,27.4394093 C7.01129124,29.3755239 5.44176023,30.9450549 3.50564562,30.9450549 L3.50564562,30.9450549 C1.56953101,30.9450549 -1.12353278e-15,29.3755239 -2.22044605e-15,27.4394093 L0,15.4725275 Z"/>
    </g>
    <g transform="translate(38.422 11.815)">
      <path fill="#000C34" d="M1.96182359 15.3199965C.878155587 15.3199965.000078469805 14.4655513.000078469805 13.4110483L.000078469805 1.95735912C.000078469805.902856138.878155587.0484109262 1.96182359.0484109262 3.0454916.0484109262 3.92356872.902856138 3.92356872 1.95735912L3.92356872 13.4110483C3.92356872 14.4655513 3.0454916 15.3199965 1.96182359 15.3199965M16.0863885 15.3199965C15.0027205 15.3199965 14.1246434 14.4655513 14.1246434 13.4110483L14.1246434 1.95735912C14.1246434.902856138 15.0027205.0484109262 16.0863885.0484109262 17.1700565.0484109262 18.0481336.902856138 18.0481336 1.95735912L18.0481336 13.4110483C18.0481336 14.4655513 17.1700565 15.3199965 16.0863885 15.3199965M58.8524322 15.3199965C57.7687642 15.3199965 56.8906871 14.4655513 56.8906871 13.4110483L56.8906871 1.95735912C56.8906871.902856138 57.7687642.0484109262 58.8524322.0484109262 59.9361002.0484109262 60.8141773.902856138 60.8141773 1.95735912L60.8141773 13.4110483C60.8141773 14.4655513 59.9361002 15.3199965 58.8524322 15.3199965"/>
      <path fill="#000C34" d="M9.80880409,15.3199965 L1.96182359,15.3199965 C0.878155587,15.3199965 7.8469805e-05,14.4655513 7.8469805e-05,13.4110483 C7.8469805e-05,12.3565453 0.878155587,11.5021001 1.96182359,11.5021001 L9.80880409,11.5021001 C10.8924721,11.5021001 11.7705492,12.3565453 11.7705492,13.4110483 C11.7705492,14.4655513 10.8924721,15.3199965 9.80880409,15.3199965"/>
      <path stroke="#000C34" stroke-linecap="round" stroke-width="4.057" d="M40.7878984,1.95419027 L40.7878984,8.01739152 C40.7878984,10.9697708 43.2471421,13.3624465 46.2807847,13.3624465 C49.3140351,13.3624465 51.7736711,10.9697708 51.7736711,8.01739152 L51.7736711,1.95419027"/>
      <path fill="#000C34" d="M65.9147146,15.3199965 C64.8310466,15.3199965 63.9529695,14.4655513 63.9529695,13.4110483 L63.9529695,1.95735912 C63.9529695,0.902856138 64.8310466,0.0484109262 65.9147146,0.0484109262 C66.9983827,0.0484109262 67.8764598,0.902856138 67.8764598,1.95735912 L67.8764598,13.4110483 C67.8764598,14.4655513 66.9983827,15.3199965 65.9147146,15.3199965"/>
      <path stroke="#000C34" stroke-linecap="round" stroke-width="4.057" d="M66.1951663,13.4110483 L72.0305733,13.4110483 C75.2807927,13.4110483 77.9158087,10.8469491 77.9158087,7.6842037 C77.9158087,4.52145834 75.2807927,1.95735912 72.0305733,1.95735912 L66.1951663,1.95735912"/>
    </g>
    <path fill="#000C34" d="M76.4315635,23.7032447 C75.7343302,23.2713771 74.8090258,23.3296216 74.168123,23.9054062 C74.035521,24.0245354 73.9203939,24.1617813 73.8261473,24.3130845 L72.8191053,25.9297853 L72.8191053,25.8549191 C71.4509379,28.2268238 68.8941325,29.8225783 65.9657673,29.8225783 C61.5959448,29.8225783 58.0535037,26.2691856 58.0535037,21.8858536 C58.0535037,17.5025215 61.5959448,13.9491288 65.9657673,13.9491288 C68.8941325,13.9491288 71.4509379,15.5448833 72.8191053,17.916788 L72.8191053,17.8831415 L73.8150751,19.4637534 C74.3759346,20.3538418 75.5521602,20.6207345 76.4422486,20.0598751 C76.5910786,19.9660948 76.7262012,19.8521511 76.8437643,19.7212923 L76.8437643,19.7599699 C77.2652881,19.4663046 77.7773096,19.2941837 78.3294081,19.2941837 C79.7694633,19.2941837 80.9368586,20.4651882 80.9368586,21.9096953 C80.9368586,23.3542025 79.7694633,24.5252069 78.3294081,24.5252069 C77.5814465,24.5252069 76.9070415,24.2093001 76.4315635,23.7032447 Z" transform="rotate(45 69.495 21.886)"/>
    <ellipse cx="67.168" cy="19.552" fill="#FFF" rx="3.786" ry="3.798"/>
  </g>
</svg>
