<?xml version="1.0" encoding="UTF-8"?>
<svg width="189px" height="61px" viewBox="0 0 189 61" version="1.1" xmlns="http://www.w3.org/2000/svg" xmlns:xlink="http://www.w3.org/1999/xlink">
    <!-- Generator: Sketch 48.2 (47327) - http://www.bohemiancoding.com/sketch -->
    <title>Logo-desktop</title>
    <desc>Created with Sketch.</desc>
    <defs>
        <polygon id="path-1" points="1.80572926e-20 0.317385998 1.80572926e-20 30.4796575 5.32947215 30.4796575 10.6589443 30.4796575 10.6589443 0.317385998"></polygon>
        <polygon id="path-3" points="1.80572926e-20 0.640735408 1.80572926e-20 16.8824172 10.6589443 16.8824172 10.6589443 0.640735408"></polygon>
    </defs>
    <g id="Desktop" stroke="none" stroke-width="1" fill="none" fill-rule="evenodd" transform="translate(-225.000000, -21.000000)">
        <g id="Logo-desktop" transform="translate(224.000000, 20.000000)">
            <g id="Group-9" transform="translate(0.974490, 0.969231)">
                <g id="Page-1">
                    <path d="M22.6504815,53.3641818 C19.7072253,53.3641818 17.3209094,50.9907442 17.3209094,48.0633718 L17.3209094,30.1625365 L27.9800536,30.1625365 L27.9800536,48.0633718 C27.9800536,50.9907442 25.5944039,53.3641818 22.6504815,53.3641818" id="Fill-1" fill="#001139"></path>
                    <path d="M27.9800536,30.1624702 L17.3209094,30.1624702 L17.3209094,12.2609723 C17.3209094,9.33359997 19.7072253,6.9601623 22.6504815,6.9601623 C25.5944039,6.9601623 27.9800536,9.33359997 27.9800536,12.2609723 L27.9800536,30.1624702 Z" id="Fill-3" fill="#00CFFF"></path>
                    <g id="Group-7" transform="translate(0.000000, 29.845084)">
                        <mask id="mask-2" fill="white">
                            <use xlink:href="#path-1"></use>
                        </mask>
                        <g id="Clip-6"></g>
                        <path d="M5.32937222,30.4796575 C2.38611604,30.4796575 -0.000199858953,28.1062198 -0.000199858953,25.1788475 L-0.000199858953,0.317385998 L10.6589443,0.317385998 L10.6589443,25.1788475 C10.6589443,28.1062198 8.2732946,30.4796575 5.32937222,30.4796575" id="Fill-5" fill="#001139" mask="url(#mask-2)"></path>
                    </g>
                    <g id="Group-10" transform="translate(0.000000, 13.280053)">
                        <mask id="mask-4" fill="white">
                            <use xlink:href="#path-3"></use>
                        </mask>
                        <g id="Clip-9"></g>
                        <path d="M10.6589443,16.8824172 L-0.000199858953,16.8824172 L-0.000199858953,5.9415454 C-0.000199858953,3.01417308 2.38611604,0.640735408 5.32937222,0.640735408 C8.2732946,0.640735408 10.6589443,3.01417308 10.6589443,5.9415454 L10.6589443,16.8824172 Z" id="Fill-8" fill="#00CFFF" mask="url(#mask-4)"></path>
                    </g>
                    <path d="M39.9715907,46.403622 C37.0283346,46.403622 34.6420187,44.0301843 34.6420187,41.102812 L34.6420187,30.1626028 L45.3011628,30.1626028 L45.3011628,41.102812 C45.3011628,44.0301843 42.9155131,46.403622 39.9715907,46.403622" id="Fill-11" fill="#001139"></path>
                    <path d="M45.3011628,30.1624702 L34.6420187,30.1624702 L34.6420187,5.30100877 C34.6420187,2.37363645 37.0283346,0.000198780375 39.9715907,0.000198780375 C42.9155131,0.000198780375 45.3011628,2.37363645 45.3011628,5.30100877 L45.3011628,30.1624702 Z" id="Fill-13" fill="#00CFFF"></path>
                </g>
                <g id="Page-1" transform="translate(70.163265, 18.415385)">
                    <path d="M2.92850819,23.1500769 C1.31086497,23.1500769 0.000117135642,21.8589231 0.000117135642,20.2654615 L0.000117135642,2.95776923 C0.000117135642,1.36430769 1.31086497,0.0731538462 2.92850819,0.0731538462 C4.54615141,0.0731538462 5.85689924,1.36430769 5.85689924,2.95776923 L5.85689924,20.2654615 C5.85689924,21.8589231 4.54615141,23.1500769 2.92850819,23.1500769" id="Fill-1" fill="#00243A"></path>
                    <path d="M24.0129238,23.1500769 C22.3952806,23.1500769 21.0845327,21.8589231 21.0845327,20.2654615 L21.0845327,2.95776923 C21.0845327,1.36430769 22.3952806,0.0731538462 24.0129238,0.0731538462 C25.630567,0.0731538462 26.9413148,1.36430769 26.9413148,2.95776923 L26.9413148,20.2654615 C26.9413148,21.8589231 25.630567,23.1500769 24.0129238,23.1500769" id="Fill-3" fill="#00243A"></path>
                    <path d="M53.6005085,22.8238846 C52.4572646,23.9500385 50.6030074,23.9500385 49.4597635,22.8238846 L48.2579518,21.6400385 C47.1141223,20.5138846 47.1141223,18.6873462 48.2579518,17.5606154 C49.4011957,16.4344615 51.2554529,16.4344615 52.3986968,17.5606154 L53.6005085,18.7444615 C54.744338,19.8711923 54.744338,21.6971538 53.6005085,22.8238846" id="Fill-5" fill="#00243A"></path>
                    <path d="M87.8518487,23.1500769 C86.2342055,23.1500769 84.9234577,21.8589231 84.9234577,20.2654615 L84.9234577,2.95776923 C84.9234577,1.36430769 86.2342055,0.0731538462 87.8518487,0.0731538462 C89.469492,0.0731538462 90.7802398,1.36430769 90.7802398,2.95776923 L90.7802398,20.2654615 C90.7802398,21.8589231 89.469492,23.1500769 87.8518487,23.1500769" id="Fill-7" fill="#00243A"></path>
                    <path d="M98.3940565,23.1500769 C96.7764133,23.1500769 95.4656655,21.8589231 95.4656655,20.2654615 L95.4656655,2.95776923 C95.4656655,1.36430769 96.7764133,0.0731538462 98.3940565,0.0731538462 C100.0117,0.0731538462 101.322448,1.36430769 101.322448,2.95776923 L101.322448,20.2654615 C101.322448,21.8589231 100.0117,23.1500769 98.3940565,23.1500769" id="Fill-9" fill="#00243A"></path>
                    <path d="M14.6420724,23.1500769 L2.92850819,23.1500769 C1.31086497,23.1500769 0.000117135642,21.8589231 0.000117135642,20.2654615 C0.000117135642,18.672 1.31086497,17.3808462 2.92850819,17.3808462 L14.6420724,17.3808462 C16.2597156,17.3808462 17.5704635,18.672 17.5704635,20.2654615 C17.5704635,21.8589231 16.2597156,23.1500769 14.6420724,23.1500769" id="Fill-11" fill="#00243A"></path>
                    <path d="M42.730028,20.1921923 C37.8776841,20.1921923 33.9448549,16.3175769 33.9448549,11.5383462 C33.9448549,6.75911538 37.8776841,2.8845 42.730028,2.8845 C47.5817863,2.8845 51.5152012,6.75911538 51.5152012,11.5383462 C51.5152012,16.3175769 47.5817863,20.1921923 42.730028,20.1921923 Z" id="Stroke-13" stroke="#00243A" stroke-width="5.99999964" stroke-linecap="round"></path>
                    <path d="M60.8860526,2.95298077 L60.8860526,12.1150962 C60.8860526,16.5764423 64.5570836,20.1920192 69.0855475,20.1920192 C73.6134258,20.1920192 77.2850425,16.5764423 77.2850425,12.1150962 L77.2850425,2.95298077" id="Stroke-15" stroke="#00243A" stroke-width="5.99999964" stroke-linecap="round"></path>
                    <path d="M98.3940565,20.2654615 L107.104849,20.2654615 C111.956607,20.2654615 115.890022,16.3908462 115.890022,11.6116154 C115.890022,6.83238462 111.956607,2.95776923 107.104849,2.95776923 L98.3940565,2.95776923" id="Stroke-17" stroke="#00243A" stroke-width="5.99999964" stroke-linecap="round"></path>
                </g>
            </g>
        </g>
    </g>
</svg>